<?xml version="1.0" encoding="UTF-8"?>
<svg id="Layer_1" data-name="Layer 1" xmlns="http://www.w3.org/2000/svg" viewBox="0 0 1200 235.7">
  <defs>
    <style>
      .cls-1 {
        fill: #00bdf2;
      }

      .cls-2 {
        fill: #fff;
      }

      .cls-3 {
        fill: #ef5ba1;
      }
    </style>
  </defs>
  <rect class="cls-2" x="743.4" width="32.5" height="32.5"/>
  <rect class="cls-3" x="4.56" y="83.16" width="45.74" height="30.5" transform="translate(-45.53 26.9) rotate(-30)"/>
  <rect class="cls-2" x="45.19" y="64.1" width="30.5" height="30.5" transform="translate(-31.58 40.85) rotate(-30)"/>
  <rect class="cls-1" x="64.26" y="89.49" width="30.5" height="45.74" transform="translate(-45.53 54.81) rotate(-30)"/>
  <rect class="cls-3" x="97.54" y="152.72" width="45.74" height="30.5" transform="translate(-67.85 82.71) rotate(-30)"/>
  <rect class="cls-2" x="138.18" y="133.66" width="30.5" height="30.5" transform="translate(-53.9 96.66) rotate(-30)"/>
  <rect class="cls-1" x="157.24" y="159.05" width="30.5" height="45.74" transform="translate(-67.85 110.62) rotate(-30)"/>
  <rect class="cls-3" x="96.99" y="29.79" width="45.74" height="30.5" transform="translate(-6.46 65.97) rotate(-30)"/>
  <rect class="cls-2" x="137.63" y="10.73" width="30.5" height="30.5" transform="translate(7.49 79.92) rotate(-30)"/>
  <rect class="cls-1" x="156.69" y="36.12" width="30.5" height="45.74" transform="translate(-6.46 93.87) rotate(-30)"/>
  <path class="cls-2" d="m292.27,182.02V49.31h30.01v29.52l-2.44-4.39c3.09-9.92,7.89-16.83,14.39-20.74,6.67-3.9,14.64-5.86,23.91-5.86h7.81v28.3h-11.47c-9.11,0-16.43,2.85-21.96,8.54-5.53,5.53-8.29,13.34-8.29,23.42v73.92h-31.96Zm149.31,2.93c-13.66,0-25.62-3.09-35.86-9.27-10.25-6.18-18.22-14.56-23.91-25.13-5.69-10.57-8.54-22.28-8.54-35.13s2.85-25.13,8.54-35.37c5.86-10.41,13.74-18.62,23.66-24.64,10.08-6.02,21.3-9.03,33.67-9.03,10.41,0,19.52,1.71,27.32,5.12,7.97,3.42,14.72,8.13,20.25,14.15,5.53,6.02,9.76,12.93,12.69,20.74,2.93,7.65,4.39,15.94,4.39,24.88,0,2.28-.16,4.64-.49,7.07-.16,2.44-.57,4.55-1.22,6.34h-102.46v-24.4h84.41l-15.13,11.47c1.46-7.48,1.06-14.15-1.22-20-2.11-5.86-5.69-10.49-10.73-13.91-4.88-3.42-10.82-5.12-17.81-5.12s-12.61,1.71-17.81,5.12c-5.21,3.25-9.19,8.13-11.95,14.64-2.6,6.34-3.58,14.07-2.93,23.18-.65,8.13.41,15.37,3.17,21.71,2.93,6.18,7.15,10.98,12.69,14.39,5.69,3.42,12.2,5.12,19.52,5.12s13.5-1.55,18.54-4.64c5.21-3.09,9.27-7.24,12.2-12.44l25.86,12.69c-2.6,6.34-6.67,11.95-12.2,16.83-5.53,4.88-12.12,8.7-19.76,11.47-7.48,2.77-15.78,4.15-24.88,4.15Zm81.56-2.93V49.31h30.01v30.74l-3.42-5.12c2.44-9.6,7.32-16.75,14.64-21.47,7.32-4.72,15.94-7.07,25.86-7.07,10.9,0,20.49,2.85,28.79,8.54,8.29,5.69,13.66,13.17,16.1,22.44l-9.03.73c4.07-10.57,10.17-18.46,18.3-23.66,8.13-5.37,17.49-8.05,28.06-8.05,9.44,0,17.81,2.11,25.13,6.34,7.48,4.23,13.34,10.16,17.57,17.81,4.23,7.48,6.34,16.18,6.34,26.1v85.39h-31.96v-77.82c0-5.86-1.06-10.9-3.17-15.13-2.11-4.23-5.04-7.48-8.78-9.76-3.74-2.44-8.29-3.66-13.66-3.66-5.04,0-9.51,1.22-13.42,3.66-3.9,2.28-6.91,5.53-9.03,9.76-2.11,4.23-3.17,9.27-3.17,15.13v77.82h-31.96v-77.82c0-5.86-1.06-10.9-3.17-15.13-2.11-4.23-5.12-7.48-9.03-9.76-3.74-2.44-8.21-3.66-13.42-3.66s-9.51,1.22-13.42,3.66c-3.9,2.28-6.91,5.53-9.03,9.76-2.11,4.23-3.17,9.27-3.17,15.13v77.82h-31.96Zm220.5,0V49.31h31.96v132.72h-31.96Zm121,53.67c-9.92,0-19.11-1.63-27.57-4.88-8.46-3.25-15.78-7.81-21.96-13.66-6.02-5.69-10.41-12.44-13.17-20.25l29.76-11.22c1.95,6.18,5.77,11.14,11.47,14.88,5.86,3.9,13.01,5.86,21.47,5.86,6.5,0,12.2-1.22,17.08-3.66,5.04-2.44,8.94-6.02,11.71-10.73,2.76-4.55,4.15-10.08,4.15-16.59v-30.25l6.1,7.32c-4.56,7.97-10.66,13.99-18.3,18.05-7.65,4.07-16.35,6.1-26.1,6.1-12.36,0-23.42-2.85-33.18-8.54-9.76-5.69-17.4-13.5-22.93-23.42-5.53-9.92-8.29-21.06-8.29-33.42s2.76-23.66,8.29-33.42c5.53-9.76,13.09-17.4,22.69-22.93,9.59-5.69,20.49-8.54,32.69-8.54,9.92,0,18.62,2.11,26.1,6.34,7.64,4.07,13.99,10,19.03,17.81l-4.39,8.05v-29.28h30.25v126.13c0,11.55-2.85,21.87-8.54,30.98-5.53,9.11-13.17,16.26-22.93,21.47-9.6,5.21-20.74,7.81-33.42,7.81Zm-1.46-88.56c6.83,0,12.77-1.46,17.81-4.39,5.2-3.09,9.27-7.32,12.2-12.69,2.93-5.37,4.39-11.55,4.39-18.54s-1.55-12.93-4.64-18.3c-2.93-5.53-7-9.84-12.2-12.93-5.04-3.09-10.9-4.64-17.57-4.64s-12.69,1.55-18.05,4.64c-5.37,3.09-9.6,7.4-12.69,12.93-2.93,5.37-4.39,11.47-4.39,18.3s1.46,12.93,4.39,18.3c3.09,5.37,7.24,9.6,12.44,12.69,5.37,3.09,11.47,4.64,18.3,4.64Zm154.27,37.81c-13.66,0-25.62-3.09-35.86-9.27-10.25-6.18-18.21-14.56-23.91-25.13-5.69-10.57-8.54-22.28-8.54-35.13s2.85-25.13,8.54-35.37c5.86-10.41,13.74-18.62,23.66-24.64,10.08-6.02,21.31-9.03,33.67-9.03,10.41,0,19.52,1.71,27.32,5.12,7.97,3.42,14.72,8.13,20.25,14.15,5.53,6.02,9.76,12.93,12.69,20.74,2.93,7.65,4.39,15.94,4.39,24.88,0,2.28-.16,4.64-.49,7.07-.16,2.44-.57,4.55-1.22,6.34h-102.46v-24.4h84.41l-15.13,11.47c1.46-7.48,1.06-14.15-1.22-20-2.11-5.86-5.69-10.49-10.73-13.91-4.88-3.42-10.81-5.12-17.81-5.12s-12.6,1.71-17.81,5.12c-5.2,3.25-9.19,8.13-11.95,14.64-2.6,6.34-3.58,14.07-2.93,23.18-.65,8.13.41,15.37,3.17,21.71,2.93,6.18,7.16,10.98,12.69,14.39,5.69,3.42,12.2,5.12,19.52,5.12s13.5-1.55,18.54-4.64c5.21-3.09,9.27-7.24,12.2-12.44l25.86,12.69c-2.6,6.34-6.67,11.95-12.2,16.83-5.53,4.88-12.12,8.7-19.76,11.47-7.48,2.77-15.78,4.15-24.88,4.15Zm132.06,0c-14.15,0-26.51-3.33-37.08-10-10.41-6.83-17.57-16.02-21.47-27.57l23.91-11.47c3.42,7.48,8.13,13.34,14.15,17.57,6.18,4.23,13.01,6.34,20.49,6.34,5.86,0,10.49-1.3,13.91-3.9,3.42-2.6,5.12-6.02,5.12-10.25,0-2.6-.73-4.72-2.2-6.34-1.3-1.79-3.17-3.25-5.61-4.39-2.28-1.3-4.8-2.36-7.56-3.17l-21.71-6.1c-11.22-3.25-19.76-8.21-25.62-14.88-5.69-6.67-8.54-14.56-8.54-23.66,0-8.13,2.03-15.21,6.1-21.22,4.23-6.18,10-10.98,17.32-14.39,7.48-3.42,16.02-5.12,25.62-5.12,12.52,0,23.58,3.01,33.18,9.03,9.59,6.02,16.42,14.48,20.49,25.37l-24.4,11.47c-2.28-6.02-6.1-10.82-11.47-14.39-5.37-3.58-11.39-5.37-18.05-5.37-5.37,0-9.6,1.22-12.69,3.66-3.09,2.44-4.64,5.61-4.64,9.51,0,2.44.65,4.55,1.95,6.34,1.3,1.79,3.09,3.25,5.37,4.39,2.44,1.14,5.2,2.2,8.29,3.17l21.22,6.34c10.9,3.25,19.27,8.13,25.13,14.64,6.02,6.5,9.03,14.48,9.03,23.91,0,7.97-2.12,15.04-6.34,21.22-4.23,6.02-10.08,10.73-17.57,14.15-7.48,3.42-16.27,5.12-26.35,5.12Z"/>
</svg>